<?xml version="1.0" standalone="no"?>
<!DOCTYPE svg PUBLIC "-//W3C//DTD SVG 20010904//EN"
 "http://www.w3.org/TR/2001/REC-SVG-20010904/DTD/svg10.dtd">
<svg version="1.0" xmlns="http://www.w3.org/2000/svg"
 width="700.000000pt" height="700.000000pt" viewBox="0 0 700.000000 700.000000"
 preserveAspectRatio="xMidYMid meet">
<metadata>
Created by potrace 1.14, written by Peter Selinger 2001-2017
</metadata>
<g transform="translate(0.000000,700.000000) scale(0.100000,-0.100000)"
fill="#000000" stroke="none">
<path d="M3920 5450 c-52 -4 -325 -8 -607 -9 -384 -1 -514 -4 -519 -13 -4 -6
-10 -46 -12 -89 -6 -97 8 -114 95 -124 252 -26 329 -58 390 -162 19 -32 27
-67 35 -145 7 -66 11 -591 11 -1468 1 -1274 0 -1370 -17 -1445 -22 -98 -35
-125 -83 -164 -49 -41 -137 -67 -287 -87 -66 -8 -125 -20 -131 -25 -10 -10
-14 -183 -5 -193 3 -3 357 -2 787 2 630 6 784 10 797 21 11 10 16 30 16 73 0
48 -4 63 -23 82 -24 24 -28 25 -231 55 -92 14 -172 55 -213 109 -66 87 -65 81
-70 776 l-5 629 148 -6 c224 -10 364 -46 444 -114 53 -45 114 -137 455 -683
339 -543 380 -604 475 -704 118 -123 251 -215 380 -261 101 -36 410 -37 465
-1 30 20 41 72 25 121 -13 39 -24 45 -105 64 -132 30 -276 144 -382 301 -103
154 -758 1232 -811 1336 -26 51 -26 50 103 118 126 66 234 146 346 256 157
154 238 300 281 510 17 79 19 121 15 250 -7 228 -50 362 -171 544 -152 226
-360 360 -664 427 -88 20 -131 22 -467 24 -203 2 -413 -1 -465 -5z m560 -220
c195 -16 320 -70 437 -187 56 -56 82 -93 118 -165 76 -156 88 -217 88 -473 0
-260 -14 -339 -90 -495 -38 -79 -59 -108 -127 -175 -94 -91 -175 -137 -321
-179 -112 -33 -208 -43 -502 -52 -201 -6 -233 -5 -238 8 -4 9 -2 343 3 744 8
708 9 730 29 776 47 104 178 187 312 199 118 10 167 9 291 -1z"/>
<path d="M1023 5414 c-23 -36 -25 -146 -3 -168 9 -8 84 -24 190 -40 196 -30
260 -53 310 -114 54 -66 62 -105 70 -362 11 -323 11 -2691 0 -2975 -15 -403
-92 -682 -231 -838 -89 -101 -190 -139 -306 -117 -77 14 -111 40 -190 144 -83
109 -121 136 -201 143 -50 5 -69 1 -115 -20 -31 -14 -77 -46 -102 -72 -148
-147 -101 -321 118 -431 106 -54 179 -67 337 -61 165 7 262 30 376 91 227 121
491 371 625 593 67 110 122 245 158 385 62 238 60 195 71 1749 6 783 15 1481
20 1550 10 146 30 200 99 262 46 41 104 61 231 77 47 6 95 18 106 25 26 17 36
63 28 128 -5 37 -12 50 -28 56 -12 5 -364 12 -783 16 l-761 7 -19 -28z"/>
</g>
</svg>
