<?xml version="1.0" standalone="no"?>
<!DOCTYPE svg PUBLIC "-//W3C//DTD SVG 20010904//EN"
 "http://www.w3.org/TR/2001/REC-SVG-20010904/DTD/svg10.dtd">
<svg version="1.0" xmlns="http://www.w3.org/2000/svg"
 width="922.000000pt" height="922.000000pt" viewBox="0 0 922.000000 922.000000"
 preserveAspectRatio="xMidYMid meet">
<metadata>
Created by potrace 1.14, written by Peter Selinger 2001-2017
</metadata>
<g transform="translate(0.000000,922.000000) scale(0.100000,-0.100000)"
fill="#000000" stroke="none">
<path d="M6410 7719 c-798 -86 -1566 -1184 -2267 -3236 l-35 -103 -39 0 c-21
0 -39 1 -39 3 0 2 -14 179 -30 393 -107 1369 -263 2240 -476 2645 -45 85 -136
186 -189 210 -34 16 -67 19 -227 19 l-186 0 -32 -27 c-56 -47 -210 -259 -358
-496 -55 -87 -73 -132 -170 -415 -486 -1415 -816 -2702 -966 -3767 -47 -334
-74 -649 -86 -1030 -16 -495 6 -628 120 -742 54 -55 108 -75 190 -71 l65 3 2
75 c31 1060 189 2072 508 3260 211 784 455 1536 791 2433 18 47 31 67 43 67
51 0 135 -157 195 -366 23 -77 28 -124 41 -383 94 -1836 240 -2933 426 -3215
46 -69 66 -76 224 -76 l136 0 56 53 c30 28 77 80 104 114 47 58 55 78 148 365
496 1527 972 2548 1470 3155 95 116 281 302 372 370 63 48 219 143 234 143 11
0 75 -173 119 -320 47 -160 112 -480 140 -690 55 -411 58 -518 66 -2390 8
-1835 8 -1826 55 -2165 22 -159 69 -383 98 -470 57 -168 137 -284 222 -324 67
-32 84 -28 141 32 148 154 256 331 306 502 l23 80 3 1205 c3 1223 -5 1830 -34
2325 -31 558 -96 1128 -170 1492 -170 843 -433 1282 -805 1342 -71 12 -81 12
-189 0z"/>
</g>
</svg>
